<svg style="display:none" xmlns="http://www.w3.org/2000/svg" xmlns:xlink="http://www.w3.org/1999/xlink" version="1.1">
	<symbol id="menu" xmlns="http://www.w3.org/2000/svg" viewBox="0 -960 960 960" fill="currentColor"><path d="M120-240v-80h720v80H120Zm0-200v-80h720v80H120Zm0-200v-80h720v80H120Z"/></symbol>
	<symbol id="account_circle" xmlns="http://www.w3.org/2000/svg" viewBox="0 -960 960 960" fill="currentColor"><path d="M234-276q51-39 114-61.5T480-360q69 0 132 22.5T726-276q35-41 54.5-93T800-480q0-133-93.5-226.5T480-800q-133 0-226.5 93.5T160-480q0 59 19.5 111t54.5 93Zm246-164q-59 0-99.5-40.5T340-580q0-59 40.5-99.5T480-720q59 0 99.5 40.5T620-580q0 59-40.5 99.5T480-440Zm0 360q-83 0-156-31.5T197-197q-54-54-85.5-127T80-480q0-83 31.5-156T197-763q54-54 127-85.5T480-880q83 0 156 31.5T763-763q54 54 85.5 127T880-480q0 83-31.5 156T763-197q-54 54-127 85.5T480-80Zm0-80q53 0 100-15.5t86-44.5q-39-29-86-44.5T480-280q-53 0-100 15.5T294-220q39 29 86 44.5T480-160Zm0-360q26 0 43-17t17-43q0-26-17-43t-43-17q-26 0-43 17t-17 43q0 26 17 43t43 17Zm0-60Zm0 360Z"/></symbol>
	<symbol id="close" xmlns="http://www.w3.org/2000/svg" viewBox="0 -960 960 960" fill="currentColor"><path d="m256-200-56-56 224-224-224-224 56-56 224 224 224-224 56 56-224 224 224 224-56 56-224-224-224 224Z"/></symbol>
	<symbol id="home_pin" xmlns="http://www.w3.org/2000/svg" viewBox="0 -960 960 960" fill="currentColor"><path d="M360-440h80v-110h80v110h80v-190l-120-80-120 80v190Zm120 254q122-112 181-203.5T720-552q0-109-69.5-178.5T480-800q-101 0-170.5 69.5T240-552q0 71 59 162.5T480-186Zm0 106Q319-217 239.5-334.5T160-552q0-150 96.5-239T480-880q127 0 223.5 89T800-552q0 100-79.5 217.5T480-80Zm0-480Z"/></symbol>
	<symbol id="call" xmlns="http://www.w3.org/2000/svg" viewBox="0 -960 960 960" fill="currentColor"><path d="M798-120q-125 0-247-54.5T329-329Q229-429 174.5-551T120-798q0-18 12-30t30-12h162q14 0 25 9.5t13 22.5l26 140q2 16-1 27t-11 19l-97 98q20 37 47.5 71.5T387-386q31 31 65 57.5t72 48.5l94-94q9-9 23.5-13.5T670-390l138 28q14 4 23 14.5t9 23.5v162q0 18-12 30t-30 12ZM241-600l66-66-17-94h-89q5 41 14 81t26 79Zm358 358q39 17 79.5 27t81.5 13v-88l-94-19-67 67ZM241-600Zm358 358Z"/></symbol>
	<symbol id="local_shipping" xmlns="http://www.w3.org/2000/svg" viewBox="0 -960 960 960" fill="currentColor"><path d="M240-160q-50 0-85-35t-35-85H40v-440q0-33 23.5-56.5T120-800h560v160h120l120 160v200h-80q0 50-35 85t-85 35q-50 0-85-35t-35-85H360q0 50-35 85t-85 35Zm0-80q17 0 28.5-11.5T280-280q0-17-11.5-28.5T240-320q-17 0-28.5 11.5T200-280q0 17 11.5 28.5T240-240ZM120-360h32q17-18 39-29t49-11q27 0 49 11t39 29h272v-360H120v360Zm600 120q17 0 28.5-11.5T760-280q0-17-11.5-28.5T720-320q-17 0-28.5 11.5T680-280q0 17 11.5 28.5T720-240Zm-40-200h170l-90-120h-80v120ZM360-540Z"/></symbol>
	<symbol id="pan_zoom" xmlns="http://www.w3.org/2000/svg" viewBox="0 -960 960 960" fill="currentColor"><path d="M120-120v-240h80v104l124-124 56 56-124 124h104v80H120Zm516-460-56-56 124-124H600v-80h240v240h-80v-104L636-580Z"/></symbol>
	<symbol id="share" xmlns="http://www.w3.org/2000/svg" viewBox="0 -960 960 960" fill="currentColor"><path d="M720-80q-50 0-85-35t-35-85q0-7 1-14.5t3-13.5L322-392q-17 15-38 23.5t-44 8.5q-50 0-85-35t-35-85q0-50 35-85t85-35q23 0 44 8.5t38 23.5l282-164q-2-6-3-13.5t-1-14.5q0-50 35-85t85-35q50 0 85 35t35 85q0 50-35 85t-85 35q-23 0-44-8.5T638-672L356-508q2 6 3 13.5t1 14.5q0 7-1 14.5t-3 13.5l282 164q17-15 38-23.5t44-8.5q50 0 85 35t35 85q0 50-35 85t-85 35Zm0-640q17 0 28.5-11.5T760-760q0-17-11.5-28.5T720-800q-17 0-28.5 11.5T680-760q0 17 11.5 28.5T720-720ZM240-440q17 0 28.5-11.5T280-480q0-17-11.5-28.5T240-520q-17 0-28.5 11.5T200-480q0 17 11.5 28.5T240-440Zm480 280q17 0 28.5-11.5T760-200q0-17-11.5-28.5T720-240q-17 0-28.5 11.5T680-200q0 17 11.5 28.5T720-160Zm0-600ZM240-480Zm480 280Z"/></symbol>
	<symbol id="sell" xmlns="http://www.w3.org/2000/svg" viewBox="0 -960 960 960" fill="currentColor"><path d="M856-390 570-104q-12 12-27 18t-30 6q-15 0-30-6t-27-18L103-457q-11-11-17-25.5T80-513v-287q0-33 23.5-56.5T160-880h287q16 0 31 6.5t26 17.5l352 353q12 12 17.5 27t5.5 30q0 15-5.5 29.5T856-390ZM513-160l286-286-353-354H160v286l353 354ZM260-640q25 0 42.5-17.5T320-700q0-25-17.5-42.5T260-760q-25 0-42.5 17.5T200-700q0 25 17.5 42.5T260-640Zm220 160Z"/></symbol>
	<symbol id="check-circle" xmlns="http://www.w3.org/2000/svg" viewBox="0 -960 960 960" fill="currentColor"><path d="m424-296 282-282-56-56-226 226-114-114-56 56 170 170Zm56 216q-83 0-156-31.5T197-197q-54-54-85.5-127T80-480q0-83 31.5-156T197-763q54-54 127-85.5T480-880q83 0 156 31.5T763-763q54 54 85.5 127T880-480q0 83-31.5 156T763-197q-54 54-127 85.5T480-80Zm0-80q134 0 227-93t93-227q0-134-93-227t-227-93q-134 0-227 93t-93 227q0 134 93 227t227 93Zm0-320Z"/></symbol>
	<symbol id="error" xmlns="http://www.w3.org/2000/svg" viewBox="0 -960 960 960" fill="currentColor"><path d="M480-280q17 0 28.5-11.5T520-320q0-17-11.5-28.5T480-360q-17 0-28.5 11.5T440-320q0 17 11.5 28.5T480-280Zm-40-160h80v-240h-80v240Zm40 360q-83 0-156-31.5T197-197q-54-54-85.5-127T80-480q0-83 31.5-156T197-763q54-54 127-85.5T480-880q83 0 156 31.5T763-763q54 54 85.5 127T880-480q0 83-31.5 156T763-197q-54 54-127 85.5T480-80Zm0-80q134 0 227-93t93-227q0-134-93-227t-227-93q-134 0-227 93t-93 227q0 134 93 227t227 93Zm0-320Z"/></symbol>
	<symbol id="trash" xmlns="http://www.w3.org/2000/svg" viewBox="0 -960 960 960" fill="currentColor"><path d="M280-120q-33 0-56.5-23.5T200-200v-520h-40v-80h200v-40h240v40h200v80h-40v520q0 33-23.5 56.5T680-120H280Zm400-600H280v520h400v-520ZM360-280h80v-360h-80v360Zm160 0h80v-360h-80v360ZM280-720v520-520Z"/></symbol>
	<symbol id="shopping-bag" fill="#000000" height="17px" width="17px" version="1.1" xmlns="http://www.w3.org/2000/svg" xmlns:xlink="http://www.w3.org/1999/xlink" viewBox="0 0 483.1 483.1" xml:space="preserve">
		<g>
			<path d="M434.55,418.7l-27.8-313.3c-0.5-6.2-5.7-10.9-12-10.9h-58.6c-0.1-52.1-42.5-94.5-94.6-94.5s-94.5,42.4-94.6,94.5h-58.6
				c-6.2,0-11.4,4.7-12,10.9l-27.8,313.3c0,0.4,0,0.7,0,1.1c0,34.9,32.1,63.3,71.5,63.3h243c39.4,0,71.5-28.4,71.5-63.3
				C434.55,419.4,434.55,419.1,434.55,418.7z M241.55,24c38.9,0,70.5,31.6,70.6,70.5h-141.2C171.05,55.6,202.65,24,241.55,24z
				M363.05,459h-243c-26,0-47.2-17.3-47.5-38.8l26.8-301.7h47.6v42.1c0,6.6,5.4,12,12,12s12-5.4,12-12v-42.1h141.2v42.1
				c0,6.6,5.4,12,12,12s12-5.4,12-12v-42.1h47.6l26.8,301.8C410.25,441.7,389.05,459,363.05,459z"/>
		</g>
	</symbol>
	<symbol id="search" width="17px" height="17px" viewBox="0 0 24 24" fill="none" xmlns="http://www.w3.org/2000/svg">
		<path d="M16.6725 16.6412L21 21M19 11C19 15.4183 15.4183 19 11 19C6.58172 19 3 15.4183 3 11C3 6.58172 6.58172 3 11 3C15.4183 3 19 6.58172 19 11Z" stroke="#000000" stroke-width="2" stroke-linecap="round" stroke-linejoin="round"/>
	</symbol>
	<symbol id="user" xmlns="http://www.w3.org/2000/svg" xmlns:xlink="http://www.w3.org/1999/xlink" version="1.1" width="17" height="17" viewBox="0 0 17 17">
		<defs>
		</defs>
		<g style="stroke: none; stroke-width: 0; stroke-dasharray: none; stroke-linecap: butt; stroke-linejoin: miter; stroke-miterlimit: 10; fill: none; fill-rule: nonzero; opacity: 1;" transform="translate(1.4065934065934016 1.4065934065934016)" >
			<path d="M 85.347 90 c 0 -22.283 -18.064 -40.347 -40.347 -40.347 S 4.653 67.717 4.653 90 H 85.347 z" style="stroke: none; stroke-width: 1; stroke-dasharray: none; stroke-linecap: butt; stroke-linejoin: miter; stroke-miterlimit: 10; fill: rgb(0,0,0); fill-rule: nonzero; opacity: 1;" transform=" matrix(1 0 0 1 0 0) " stroke-linecap="round" />
			<circle cx="45.003" cy="21.413" r="21.413" style="stroke: none; stroke-width: 1; stroke-dasharray: none; stroke-linecap: butt; stroke-linejoin: miter; stroke-miterlimit: 10; fill: rgb(0,0,0); fill-rule: nonzero; opacity: 1;" transform="  matrix(1 0 0 1 0 0) "/>
		</g>
	</symbol>
	<symbol id="Location" viewBox="0 0 512 512" xml:space="preserve" xmlns="http://www.w3.org/2000/svg">
		<path d="M256 0C150.4 0 64.5 85.9 64.5 191.5c0 34.4 16.2 77.8 49.4 132.7 27.6 45.6 61.8 90.9 91.9 130.8 13.9 18.4 27 35.8 37.1 50.2 3 4.3 7.9 6.8 13.1 6.8 5.2 0 10.1-2.5 13.1-6.8 10.1-14.4 23.2-31.8 37.1-50.2 30.1-39.9 64.2-85.2 91.9-130.8 33.2-54.9 49.4-98.3 49.4-132.7C447.5 85.9 361.6 0 256 0zm0 280c-48.8 0-88.5-39.7-88.5-88.5S207.2 103 256 103s88.5 39.7 88.5 88.5S304.8 280 256 280z" fill="currentColor"/>
	</symbol>
	<symbol id="Info" viewBox="0 0 10.583 10.583" xmlns="http://www.w3.org/2000/svg">
		<path style="color:currentColor;paint-order:fill markers stroke" d="M5.29 2.117A3.177 3.177 0 0 0 2.118 5.29 3.179 3.179 0 0 0 5.29 8.466 3.18 3.18 0 0 0 8.466 5.29a3.178 3.178 0 0 0-3.175-3.173zm0 .53A2.641 2.641 0 0 1 7.938 5.29a2.643 2.643 0 0 1-2.646 2.647A2.641 2.641 0 0 1 2.646 5.29a2.64 2.64 0 0 1 2.645-2.644zm.003 1.1a.265.265 0 0 0-.266.264v1.612a.265.265 0 0 0 .266.265.265.265 0 0 0 .264-.265V4.01a.265.265 0 0 0-.264-.264Zm0 2.43a.357.357 0 0 0-.359.358.357.357 0 0 0 .359.355.357.357 0 0 0 .356-.355.357.357 0 0 0-.356-.359z" fill-rule="evenodd" fill="currentColor"/>
	</symbol>
	<symbol id="chevron-right" viewBox="0 0 24 24"><path fill="currentColor" d="M12.6 12L8.7 8.1q-.275-.275-.275-.7t.275-.7t.7-.275t.7.275l4.6 4.6q.15.15.213.325t.062.375t-.062.375t-.213.325l-4.6 4.6q-.275.275-.7.275t-.7-.275t-.275-.7t.275-.7z"></path></symbol>
	<symbol id="heart" viewBox="0 0 24 24"><path fill="currentColor" d="M12 20.325q-.35 0-.712-.125t-.638-.4l-1.725-1.575q-2.65-2.425-4.788-4.812T2 8.15Q2 5.8 3.575 4.225T7.5 2.65q1.325 0 2.5.562t2 1.538q.825-.975 2-1.537t2.5-.563q2.35 0 3.925 1.575T22 8.15q0 2.875-2.125 5.275T15.05 18.25l-1.7 1.55q-.275.275-.637.4t-.713.125M11.05 6.75q-.725-1.025-1.55-1.563t-2-.537q-1.5 0-2.5 1t-1 2.5q0 1.3.925 2.763t2.213 2.837t2.65 2.575T12 18.3q.85-.775 2.213-1.975t2.65-2.575t2.212-2.837T20 8.15q0-1.5-1-2.5t-2.5-1q-1.175 0-2 .538T12.95 6.75q-.175.25-.425.375T12 7.25t-.525-.125t-.425-.375m.95 4.725"></path></symbol>
	<symbol id="star" viewBox="0 0 24 24"><path fill="currentColor" d="m5.825 21l2.325-7.6L2 9h7.6L12 1l2.4 8H22l-6.15 4.4l2.325 7.6L12 16.3z"></path></symbol>
	<symbol id="plus" viewBox="0 0 24 24"><path fill="currentColor" d="M12 21q-.425 0-.712-.288T11 20v-7H4q-.425 0-.712-.288T3 12t.288-.712T4 11h7V4q0-.425.288-.712T12 3t.713.288T13 4v7h7q.425 0 .713.288T21 12t-.288.713T20 13h-7v7q0 .425-.288.713T12 21"></path></symbol>
	<symbol id="minus" viewBox="0 0 24 24"><path fill="currentColor" d="M18 12.998H6a1 1 0 0 1 0-2h12a1 1 0 0 1 0 2"></path></symbol>

	<symbol id="afterpay" xmlns="http://www.w3.org/2000/svg" width="104" height="36" viewBox="14 12 76 12"><path class="afterpay-logo-badge-background" fill="none" d="M86.002 35.932h-68C8.096 35.932.07 27.905.07 18.002.07 8.096 8.097.07 18.001.07h68c9.904 0 17.932 8.027 17.932 17.931.006 9.897-8.028 17.931-17.931 17.931z"/><g class="afterpay-logo-badge-lockup"><path d="m88.23 13.52-2.259-1.292-2.291-1.313c-1.515-.868-3.409.222-3.409 1.972v.294c0 .163.085.314.229.392l1.064.607c.294.17.66-.045.66-.385v-.699a.45.45 0 0 1 .672-.391l2.09 1.201 2.082 1.195c.3.17.3.607 0 .777l-2.083 1.195-2.089 1.201a.45.45 0 0 1-.673-.391v-.347c0-1.75-1.893-2.846-3.408-1.971l-2.292 1.312-2.26 1.293c-1.52.875-1.52 3.075 0 3.95l2.26 1.293 2.292 1.313c1.515.868 3.408-.222 3.408-1.972v-.294a.442.442 0 0 0-.228-.392l-1.064-.607a.441.441 0 0 0-.66.385v.699a.45.45 0 0 1-.673.392l-2.089-1.202-2.083-1.195a.448.448 0 0 1 0-.777l2.083-1.195 2.09-1.201a.45.45 0 0 1 .672.392v.346c0 1.75 1.894 2.847 3.409 1.972l2.291-1.313 2.26-1.293c1.521-.881 1.521-3.075 0-3.95zM73.408 13.952 68.12 24.876h-2.194l1.979-4.081-3.115-6.843h2.253l1.998 4.584 2.18-4.584h2.188zM20.524 17.83c0-1.306-.947-2.22-2.109-2.22s-2.109.934-2.109 2.22c0 1.274.947 2.22 2.11 2.22s2.108-.914 2.108-2.22m.02 3.879v-1.006c-.575.7-1.43 1.13-2.449 1.13-2.129 0-3.741-1.704-3.741-4.003 0-2.279 1.678-4.015 3.787-4.015.992 0 1.828.437 2.403 1.116v-.98h1.906v7.758h-1.906zM31.723 19.985c-.666 0-.856-.248-.856-.901v-3.441h1.228v-1.691h-1.228v-1.894h-1.952v1.894h-2.52v-.77c0-.654.248-.902.933-.902h.431v-1.502h-.94c-1.613 0-2.377.53-2.377 2.142v1.038h-1.084v1.685h1.084v6.066h1.952v-6.066h2.52v3.8c0 1.58.608 2.266 2.188 2.266h1.006v-1.724h-.385zM38.736 17.132c-.138-1.006-.96-1.613-1.927-1.613-.96 0-1.756.587-1.952 1.613h3.879zm-3.899 1.208c.137 1.149.96 1.802 2.005 1.802.823 0 1.456-.385 1.828-1.006h2.005c-.464 1.646-1.94 2.697-3.879 2.697-2.344 0-3.99-1.645-3.99-3.99 0-2.344 1.737-4.035 4.036-4.035 2.311 0 3.99 1.704 3.99 4.035 0 .17-.013.34-.046.497h-5.949zM53.264 17.83c0-1.253-.947-2.22-2.109-2.22s-2.11.934-2.11 2.22c0 1.274.948 2.22 2.11 2.22s2.11-.96 2.11-2.22m-6.145 7.046V13.952h1.906v1.005c.575-.711 1.43-1.149 2.449-1.149 2.096 0 3.742 1.724 3.742 4.003s-1.679 4.016-3.788 4.016c-.98 0-1.782-.386-2.344-1.039v4.081H47.12v.007zM62.092 17.83c0-1.306-.947-2.22-2.109-2.22s-2.109.934-2.109 2.22c0 1.274.947 2.22 2.11 2.22 1.161 0 2.108-.914 2.108-2.22m.02 3.879v-1.006c-.575.7-1.43 1.13-2.449 1.13-2.128 0-3.741-1.704-3.741-4.003 0-2.279 1.678-4.015 3.787-4.015.992 0 1.828.437 2.403 1.116v-.98h1.907v7.758h-1.907zM43.679 14.71s.483-.902 1.678-.902c.509 0 .835.176.835.176v1.979s-.718-.444-1.377-.353c-.66.092-1.078.692-1.078 1.502v4.59h-1.972v-7.75h1.907v.757h.007z"/></g></symbol>
</svg>